<svg xmlns="http://www.w3.org/2000/svg" xmlns:xlink="http://www.w3.org/1999/xlink" width="400" zoomAndPan="magnify" viewBox="0 0 300 299.999988" height="400" preserveAspectRatio="xMidYMid meet" version="1.0"><defs><clipPath id="440d66c643"><path d="M 3.386719 3.386719 L 296.636719 3.386719 L 296.636719 296.636719 L 3.386719 296.636719 Z M 3.386719 3.386719 " clip-rule="nonzero"/></clipPath></defs><path fill="#eef5f6" d="M 164.386719 150.011719 C 164.386719 150.957031 164.296875 151.890625 164.109375 152.816406 C 163.925781 153.742188 163.652344 154.640625 163.292969 155.511719 C 162.933594 156.386719 162.488281 157.214844 161.964844 158 C 161.441406 158.785156 160.84375 159.507812 160.175781 160.175781 C 159.507812 160.84375 158.785156 161.441406 158 161.964844 C 157.214844 162.488281 156.386719 162.933594 155.511719 163.292969 C 154.640625 163.652344 153.742188 163.925781 152.816406 164.109375 C 151.890625 164.296875 150.957031 164.386719 150.011719 164.386719 C 149.066406 164.386719 148.132812 164.296875 147.207031 164.109375 C 146.28125 163.925781 145.382812 163.652344 144.511719 163.292969 C 143.640625 162.933594 142.8125 162.488281 142.027344 161.964844 C 141.242188 161.441406 140.515625 160.84375 139.847656 160.175781 C 139.179688 159.507812 138.585938 158.785156 138.058594 158 C 137.535156 157.214844 137.09375 156.386719 136.730469 155.511719 C 136.371094 154.640625 136.097656 153.742188 135.914062 152.816406 C 135.730469 151.890625 135.636719 150.957031 135.636719 150.011719 C 135.636719 149.066406 135.730469 148.132812 135.914062 147.207031 C 136.097656 146.28125 136.371094 145.382812 136.730469 144.511719 C 137.09375 143.640625 137.535156 142.8125 138.058594 142.027344 C 138.585938 141.242188 139.179688 140.515625 139.847656 139.847656 C 140.515625 139.179688 141.242188 138.585938 142.027344 138.058594 C 142.8125 137.535156 143.640625 137.09375 144.511719 136.730469 C 145.382812 136.371094 146.28125 136.097656 147.207031 135.914062 C 148.132812 135.730469 149.066406 135.636719 150.011719 135.636719 C 150.957031 135.636719 151.890625 135.730469 152.816406 135.914062 C 153.742188 136.097656 154.640625 136.371094 155.511719 136.730469 C 156.386719 137.09375 157.214844 137.535156 158 138.058594 C 158.785156 138.585938 159.507812 139.179688 160.175781 139.847656 C 160.84375 140.515625 161.441406 141.242188 161.964844 142.027344 C 162.488281 142.8125 162.933594 143.640625 163.292969 144.511719 C 163.652344 145.382812 163.925781 146.28125 164.109375 147.207031 C 164.296875 148.132812 164.386719 149.066406 164.386719 150.011719 Z M 164.386719 150.011719 " fill-opacity="1" fill-rule="nonzero"/><path fill="#deecf1" d="M 187 144.617188 C 187.679688 149.203125 187.472656 153.789062 186.480469 158.171875 C 185.339844 163.207031 183.167969 167.96875 180.097656 172.132812 C 177.417969 175.753906 174.0625 178.921875 170.132812 181.417969 C 168.050781 182.742188 165.800781 183.875 163.402344 184.789062 C 160.851562 185.761719 158.257812 186.433594 155.660156 186.824219 C 151.0625 187.511719 146.464844 187.324219 142.070312 186.339844 C 136.9375 185.203125 132.082031 182.976562 127.863281 179.832031 C 124.28125 177.164062 121.152344 173.828125 118.6875 169.925781 C 117.375 167.855469 116.253906 165.625 115.34375 163.242188 C 114.320312 160.5625 113.636719 157.835938 113.257812 155.113281 C 112.621094 150.582031 112.84375 146.050781 113.839844 141.726562 C 115.023438 136.535156 117.304688 131.640625 120.53125 127.402344 C 123.207031 123.890625 126.519531 120.824219 130.394531 118.410156 C 132.410156 117.152344 134.585938 116.0625 136.894531 115.183594 C 139.621094 114.144531 142.394531 113.449219 145.171875 113.074219 C 149.691406 112.457031 154.203125 112.695312 158.515625 113.695312 C 163.609375 114.875 168.417969 117.117188 172.597656 120.265625 C 176.144531 122.945312 179.246094 126.28125 181.695312 130.179688 C 182.964844 132.214844 184.0625 134.40625 184.949219 136.734375 C 185.9375 139.335938 186.621094 141.972656 187 144.617188 Z M 164.386719 150.011719 C 164.386719 142.070312 157.953125 135.636719 150.011719 135.636719 C 142.070312 135.636719 135.636719 142.070312 135.636719 150.011719 C 135.636719 157.953125 142.070312 164.386719 150.011719 164.386719 C 157.953125 164.386719 164.386719 157.953125 164.386719 150.011719 Z M 164.386719 150.011719 " fill-opacity="1" fill-rule="nonzero"/><path fill="#537983" d="M 113.839844 141.726562 C 86.359375 129.140625 62.273438 128.617188 38.210938 150.300781 L 37.886719 150.300781 L 37.886719 150.011719 C 37.886719 133.664062 41.382812 118.132812 47.671875 104.128906 L 48.019531 104.28125 C 78.851562 94.347656 100.613281 104.679688 120.53125 127.402344 C 117.304688 131.640625 115.023438 136.535156 113.839844 141.726562 Z M 113.839844 141.726562 " fill-opacity="1" fill-rule="nonzero"/><path fill="#537983" d="M 71.074219 229.644531 C 59.910156 218.574219 51.054688 205.171875 45.308594 190.222656 L 45.769531 190.042969 C 60.519531 161.265625 83.167969 153.164062 113.257812 155.113281 C 113.636719 157.835938 114.320312 160.5625 115.34375 163.242188 C 116.253906 165.625 117.375 167.855469 118.6875 169.925781 C 90.34375 180.453125 72.925781 197.117188 71.242188 229.476562 Z M 71.074219 229.644531 " fill-opacity="1" fill-rule="nonzero"/><path fill="#537983" d="M 150.011719 262.136719 C 133.878906 262.136719 118.542969 258.734375 104.679688 252.597656 L 104.816406 252.28125 C 94.886719 221.484375 105.191406 199.738281 127.863281 179.832031 C 132.082031 182.976562 136.9375 185.203125 142.070312 186.339844 C 129.433594 213.871094 128.871094 238 150.585938 262.101562 L 150.585938 262.132812 C 150.398438 262.136719 150.203125 262.136719 150.011719 262.136719 Z M 150.011719 262.136719 " fill-opacity="1" fill-rule="nonzero"/><path fill="#537983" d="M 229.539062 229.058594 C 218.574219 240.082031 205.339844 248.84375 190.589844 254.570312 L 190.578125 254.535156 C 161.71875 239.746094 153.652344 217.023438 155.660156 186.824219 C 158.257812 186.433594 160.851562 185.761719 163.402344 184.789062 C 165.800781 183.875 168.050781 182.742188 170.132812 181.417969 C 180.636719 209.816406 197.242188 227.304688 229.539062 229.058594 Z M 229.539062 229.058594 " fill-opacity="1" fill-rule="nonzero"/><path fill="#537983" d="M 262.136719 149.949219 L 262.136719 150.011719 C 262.136719 166.238281 258.691406 181.660156 252.488281 195.585938 C 221.71875 205.382812 199.996094 194.9375 180.097656 172.132812 C 183.167969 167.96875 185.339844 163.207031 186.480469 158.171875 C 213.976562 170.832031 238.074219 171.476562 262.136719 149.949219 Z M 262.136719 149.949219 " fill-opacity="1" fill-rule="nonzero"/><path fill="#537983" d="M 229.34375 70.769531 C 240.414062 81.851562 249.171875 95.230469 254.847656 110.140625 C 240 138.769531 217.230469 146.699219 187 144.617188 C 186.621094 141.972656 185.9375 139.335938 184.949219 136.734375 C 184.0625 134.40625 182.964844 132.214844 181.695312 130.179688 C 210.097656 119.679688 227.589844 103.070312 229.34375 70.769531 Z M 229.34375 70.769531 " fill-opacity="1" fill-rule="nonzero"/><path fill="#537983" d="M 196.105469 47.765625 C 205.941406 78.585938 195.460938 100.332031 172.597656 120.265625 C 168.417969 117.117188 163.609375 114.875 158.515625 113.695312 C 171.167969 86.160156 171.734375 62.027344 150.011719 37.921875 L 150.011719 37.886719 C 166.441406 37.886719 182.046875 41.417969 196.105469 47.765625 Z M 196.105469 47.765625 " fill-opacity="1" fill-rule="nonzero"/><path fill="#537983" d="M 130.394531 118.410156 C 119.863281 90.058594 103.203125 72.640625 70.835938 70.957031 L 70.660156 70.789062 C 81.78125 59.652344 95.230469 50.84375 110.222656 45.148438 L 110.257812 45.234375 C 139.15625 60.042969 147.207031 82.8125 145.171875 113.074219 C 142.394531 113.449219 139.621094 114.144531 136.894531 115.183594 C 134.585938 116.0625 132.410156 117.152344 130.394531 118.410156 Z M 130.394531 118.410156 " fill-opacity="1" fill-rule="nonzero"/><path fill="#678d98" d="M 130.394531 118.410156 C 126.519531 120.824219 123.207031 123.890625 120.53125 127.402344 C 100.613281 104.679688 78.851562 94.347656 48.019531 104.28125 L 47.671875 104.128906 C 53.285156 91.632812 61.113281 80.351562 70.664062 70.789062 L 70.835938 70.957031 C 103.203125 72.640625 119.863281 90.058594 130.394531 118.410156 Z M 130.394531 118.410156 " fill-opacity="1" fill-rule="nonzero"/><path fill="#678d98" d="M 113.839844 141.726562 C 112.84375 146.050781 112.621094 150.582031 113.257812 155.113281 C 83.167969 153.164062 60.519531 161.265625 45.769531 190.042969 L 45.308594 190.222656 C 40.550781 177.824219 37.921875 164.371094 37.886719 150.300781 L 38.210938 150.300781 C 62.273438 128.617188 86.359375 129.140625 113.839844 141.726562 Z M 113.839844 141.726562 " fill-opacity="1" fill-rule="nonzero"/><path fill="#678d98" d="M 118.6875 169.925781 C 121.152344 173.828125 124.28125 177.164062 127.863281 179.832031 C 105.191406 199.738281 94.886719 221.484375 104.816406 252.28125 L 104.679688 252.597656 C 92.09375 247.027344 80.71875 239.207031 71.074219 229.644531 L 71.242188 229.476562 C 72.925781 197.117188 90.34375 180.453125 118.6875 169.925781 Z M 118.6875 169.925781 " fill-opacity="1" fill-rule="nonzero"/><path fill="#678d98" d="M 190.578125 254.535156 L 190.589844 254.570312 C 178.175781 259.394531 164.691406 262.0625 150.585938 262.132812 L 150.585938 262.101562 C 128.871094 238 129.433594 213.871094 142.070312 186.339844 C 146.464844 187.324219 151.0625 187.511719 155.660156 186.824219 C 153.652344 217.023438 161.71875 239.746094 190.578125 254.535156 Z M 190.578125 254.535156 " fill-opacity="1" fill-rule="nonzero"/><path fill="#678d98" d="M 180.097656 172.132812 C 199.996094 194.9375 221.71875 205.382812 252.488281 195.585938 C 246.90625 208.128906 239.085938 219.453125 229.539062 229.058594 C 197.242188 227.304688 180.636719 209.816406 170.132812 181.417969 C 174.0625 178.921875 177.417969 175.753906 180.097656 172.132812 Z M 180.097656 172.132812 " fill-opacity="1" fill-rule="nonzero"/><path fill="#678d98" d="M 254.847656 110.140625 C 259.550781 122.511719 262.132812 135.929688 262.136719 149.949219 C 238.074219 171.476562 213.976562 170.832031 186.480469 158.171875 C 187.472656 153.789062 187.679688 149.203125 187 144.617188 C 217.230469 146.699219 240 138.769531 254.847656 110.140625 Z M 254.847656 110.140625 " fill-opacity="1" fill-rule="nonzero"/><path fill="#678d98" d="M 196.105469 47.765625 C 208.5625 53.394531 219.8125 61.226562 229.34375 70.769531 C 227.589844 103.070312 210.097656 119.679688 181.695312 130.179688 C 179.246094 126.28125 176.144531 122.945312 172.597656 120.265625 C 195.460938 100.332031 205.941406 78.585938 196.105469 47.765625 Z M 196.105469 47.765625 " fill-opacity="1" fill-rule="nonzero"/><path fill="#678d98" d="M 110.222656 45.148438 C 122.585938 40.457031 136 37.886719 150.011719 37.886719 L 150.011719 37.921875 C 171.734375 62.027344 171.167969 86.160156 158.515625 113.695312 C 154.203125 112.695312 149.691406 112.457031 145.171875 113.074219 C 147.207031 82.8125 139.15625 60.042969 110.257812 45.234375 Z M 110.222656 45.148438 " fill-opacity="1" fill-rule="nonzero"/><path fill="#eef5f6" d="M 150.011719 9.136719 C 227.816406 9.136719 290.886719 72.207031 290.886719 150.011719 C 290.886719 227.816406 227.816406 290.886719 150.011719 290.886719 C 72.207031 290.886719 9.136719 227.816406 9.136719 150.011719 C 9.136719 72.207031 72.207031 9.136719 150.011719 9.136719 Z M 262.136719 150.011719 L 262.136719 149.949219 C 262.132812 135.929688 259.550781 122.511719 254.847656 110.140625 C 249.171875 95.230469 240.414062 81.851562 229.34375 70.769531 C 219.8125 61.226562 208.5625 53.394531 196.105469 47.765625 C 182.046875 41.417969 166.441406 37.886719 150.011719 37.886719 C 136 37.886719 122.585938 40.457031 110.222656 45.148438 C 95.230469 50.84375 81.78125 59.652344 70.660156 70.789062 C 61.113281 80.351562 53.285156 91.632812 47.671875 104.128906 C 41.382812 118.132812 37.886719 133.664062 37.886719 150.011719 L 37.886719 150.300781 C 37.921875 164.371094 40.550781 177.824219 45.308594 190.222656 C 51.054688 205.171875 59.910156 218.574219 71.074219 229.644531 C 80.71875 239.207031 92.09375 247.027344 104.679688 252.597656 C 118.542969 258.734375 133.878906 262.136719 150.011719 262.136719 C 150.203125 262.136719 150.398438 262.136719 150.585938 262.132812 C 164.691406 262.0625 178.175781 259.394531 190.589844 254.570312 C 205.339844 248.84375 218.574219 240.078125 229.539062 229.058594 C 239.085938 219.453125 246.90625 208.128906 252.488281 195.585938 C 258.691406 181.660156 262.136719 166.238281 262.136719 150.011719 Z M 262.136719 150.011719 " fill-opacity="1" fill-rule="nonzero"/><g clip-path="url(#440d66c643)"><path fill="#000000" d="M 150.011719 3.386719 C 68.976562 3.386719 3.386719 68.964844 3.386719 150.011719 C 3.386719 231.058594 68.964844 296.636719 150.011719 296.636719 C 231.058594 296.636719 296.636719 231.058594 296.636719 150.011719 C 296.636719 68.964844 231.058594 3.386719 150.011719 3.386719 Z M 150.011719 285.136719 C 75.503906 285.136719 14.886719 224.519531 14.886719 150.011719 C 14.886719 75.503906 75.503906 14.886719 150.011719 14.886719 C 224.519531 14.886719 285.136719 75.503906 285.136719 150.011719 C 285.136719 224.519531 224.519531 285.136719 150.011719 285.136719 Z M 150.011719 285.136719 " fill-opacity="1" fill-rule="nonzero"/></g><path fill="#000000" d="M 267.886719 150.011719 C 267.886719 85.007812 214.980469 32.136719 150.011719 32.136719 C 85.042969 32.136719 32.136719 85.015625 32.136719 150.011719 C 32.136719 215.011719 85.015625 267.886719 150.011719 267.886719 C 215.011719 267.886719 267.886719 215.125 267.886719 150.011719 Z M 227.199219 223.128906 C 202.804688 221.058594 187.558594 209.007812 177.113281 183.476562 C 178.179688 182.613281 179.210938 181.707031 180.195312 180.746094 C 197.640625 198.882812 217.003906 208.050781 241.5625 204.121094 C 237.488281 210.992188 232.667969 217.367188 227.199219 223.128906 Z M 190.910156 248.203125 C 169.347656 236.34375 160.300781 219.109375 161.183594 191.53125 C 163.609375 190.882812 165.394531 190.222656 167.140625 189.46875 C 176.90625 212.398438 191.664062 228.078125 216.28125 233.15625 C 208.617188 239.28125 200.089844 244.371094 190.910156 248.203125 Z M 153.175781 256.335938 C 137.222656 237.566406 134.890625 218.230469 145.542969 192.746094 C 146.90625 192.894531 148.277344 192.96875 149.644531 192.980469 C 149.203125 217.972656 156.378906 238.285156 176.875 252.941406 C 169.269531 254.925781 161.339844 256.09375 153.175781 256.328125 Z M 109.640625 248.421875 C 102.621094 224.664062 108.3125 206.023438 128.433594 187.089844 C 130.652344 188.382812 132.410156 189.1875 134.261719 189.929688 C 124.875 213.308594 124.460938 234.835938 138.34375 255.75 C 128.292969 254.652344 118.65625 252.136719 109.640625 248.429688 Z M 51.8125 190.910156 C 63.648438 169.039062 80.855469 159.820312 108.503906 160.648438 C 109.148438 163.15625 109.832031 165.03125 110.648438 166.941406 C 87.707031 176.75 72 191.628906 67.046875 216.511719 C 60.839844 208.78125 55.6875 200.179688 51.8125 190.910156 Z M 72.859375 76.855469 C 97.507812 78.792969 112.878906 90.777344 123.390625 116.324219 C 122.378906 117.121094 121.40625 117.96875 120.472656 118.851562 C 102.996094 100.75 83.449219 91.527344 58.542969 95.765625 C 62.605469 88.9375 67.417969 82.585938 72.859375 76.855469 Z M 109.835938 51.527344 C 131.46875 63.394531 140.546875 80.65625 139.644531 108.3125 C 137.011719 108.980469 135.1875 109.652344 133.390625 110.410156 C 123.4375 87.105469 108.417969 71.691406 83.851562 66.773438 C 91.691406 60.53125 100.425781 55.371094 109.832031 51.527344 Z M 147.402344 43.675781 C 163.375 62.449219 165.710938 81.800781 155.039062 107.300781 C 153.761719 107.152344 152.480469 107.058594 151.183594 107.023438 C 151.679688 81.695312 144.359375 61.445312 124 46.863281 C 131.515625 44.964844 139.347656 43.867188 147.402344 43.675781 Z M 191.378906 52.019531 C 198.132812 75.589844 192.257812 94.152344 172.035156 113.035156 C 170.1875 111.945312 168.273438 110.992188 166.289062 110.1875 C 175.761719 86.664062 176.082031 65.175781 162.292969 44.363281 C 172.496094 45.539062 182.265625 48.15625 191.382812 52.019531 Z M 248.488281 109.824219 C 236.589844 131.152344 219.328125 140.070312 191.726562 139.109375 C 191.089844 136.699219 190.464844 134.992188 189.699219 133.195312 C 212.941406 123.316406 228.382812 108.433594 233.425781 84.089844 C 239.585938 91.863281 244.675781 100.511719 248.488281 109.820312 Z M 248.214844 190.878906 C 224.6875 197.59375 206.160156 191.734375 187.324219 171.570312 C 188.53125 169.476562 189.324219 167.757812 190.039062 165.980469 C 213.105469 175.285156 234.625 176.011719 255.675781 162.195312 C 254.523438 172.246094 251.972656 181.871094 248.210938 190.878906 Z M 150.179688 181.488281 C 127.546875 181.488281 112.003906 158.097656 121.410156 137.113281 C 126.679688 125.367188 138.183594 118.507812 150.109375 118.507812 C 162.804688 118.507812 174.792969 126.242188 179.574219 138.789062 C 187.425781 159.417969 172.082031 181.488281 150.179688 181.488281 Z M 256.347656 147.367188 C 237.628906 163.144531 218.328125 165.394531 192.878906 154.714844 C 193.027344 153.371094 193.113281 152.011719 193.136719 150.660156 C 218.234375 151.179688 238.492188 144.0625 253.125 123.902344 C 255.035156 131.441406 256.144531 139.292969 256.339844 147.367188 Z M 183.757812 123.210938 C 182.929688 122.175781 182.070312 121.179688 181.160156 120.238281 C 199.226562 102.898438 208.605469 83.523438 204.65625 58.792969 C 211.433594 62.871094 217.722656 67.679688 223.417969 73.113281 C 221.351562 97.519531 209.292969 112.769531 183.765625 123.21875 Z M 51.800781 109.148438 C 75.605469 102.097656 94.28125 107.789062 113.242188 127.957031 C 111.894531 130.21875 111.054688 132.003906 110.269531 133.953125 C 86.640625 124.480469 65.101562 124.296875 44.28125 138.253906 C 45.40625 128.046875 47.984375 118.277344 51.800781 109.140625 Z M 43.675781 153.15625 C 62.503906 137.011719 81.863281 134.566406 107.40625 145.210938 C 107.253906 146.511719 107.167969 147.816406 107.140625 149.121094 C 81.945312 148.710938 61.613281 156.09375 47.035156 176.785156 C 45.0625 169.199219 43.914062 161.292969 43.671875 153.15625 Z M 116.617188 176.921875 C 117.457031 177.96875 118.339844 178.976562 119.273438 179.933594 C 101.183594 197.449219 92.058594 216.976562 96.296875 241.8125 C 89.371094 237.746094 82.945312 232.914062 77.132812 227.441406 C 79.070312 202.804688 91.058594 187.433594 116.617188 176.921875 Z M 116.617188 176.921875 " fill-opacity="1" fill-rule="nonzero"/><path fill="#000000" d="M 150.011719 129.886719 C 138.914062 129.886719 129.886719 138.914062 129.886719 150.011719 C 129.886719 161.109375 138.914062 170.136719 150.011719 170.136719 C 161.109375 170.136719 170.136719 161.109375 170.136719 150.011719 C 170.136719 138.914062 161.109375 129.886719 150.011719 129.886719 Z M 150.011719 158.636719 C 145.257812 158.636719 141.386719 154.765625 141.386719 150.011719 C 141.386719 145.257812 145.257812 141.386719 150.011719 141.386719 C 154.765625 141.386719 158.636719 145.257812 158.636719 150.011719 C 158.636719 154.765625 154.765625 158.636719 150.011719 158.636719 Z M 150.011719 158.636719 " fill-opacity="1" fill-rule="nonzero"/></svg>