<svg xmlns="http://www.w3.org/2000/svg" xmlns:xlink="http://www.w3.org/1999/xlink" width="500" zoomAndPan="magnify" viewBox="0 0 375 374.999991" height="500" preserveAspectRatio="xMidYMid meet" version="1.0"><defs><clipPath id="4d7788e0f1"><path d="M 2 143 L 374.890625 143 L 374.890625 328 L 2 328 Z M 2 143 " clip-rule="nonzero"/></clipPath><clipPath id="6f5823581a"><path d="M 115 143 L 374.890625 143 L 374.890625 328 L 115 328 Z M 115 143 " clip-rule="nonzero"/></clipPath><clipPath id="e0da0ba835"><path d="M 284 303 L 325 303 L 325 343.5 L 284 343.5 Z M 284 303 " clip-rule="nonzero"/></clipPath><clipPath id="593e952931"><path d="M 103 71 L 325 71 L 325 343.5 L 103 343.5 Z M 103 71 " clip-rule="nonzero"/></clipPath><clipPath id="0486398d5f"><path d="M 66 37.5 L 288 37.5 L 288 150 L 66 150 Z M 66 37.5 " clip-rule="nonzero"/></clipPath><clipPath id="bc7ed4728e"><path d="M 284 202 L 374.890625 202 L 374.890625 294 L 284 294 Z M 284 202 " clip-rule="nonzero"/></clipPath><clipPath id="645ab442c7"><path d="M 284 92 L 374.890625 92 L 374.890625 184 L 284 184 Z M 284 92 " clip-rule="nonzero"/></clipPath><clipPath id="b96d2c1172"><path d="M 297 324 L 374.890625 324 L 374.890625 331 L 297 331 Z M 297 324 " clip-rule="nonzero"/></clipPath></defs><g clip-path="url(#4d7788e0f1)"><path fill="#c2d5ec" d="M 375.066406 143.878906 L 69.746094 143.878906 L 2.949219 170.152344 L 2.949219 327.214844 L 375.066406 327.214844 Z M 375.066406 143.878906 " fill-opacity="1" fill-rule="nonzero"/></g><g clip-path="url(#6f5823581a)"><path fill="#3f4d81" d="M 338.445312 189.308594 C 354.082031 189.308594 367.703125 180.816406 375.066406 168.207031 L 375.066406 143.878906 L 115.34375 143.878906 L 115.34375 327.214844 L 318.082031 327.214844 L 328.085938 317.195312 C 329.574219 315.707031 330.410156 313.6875 330.410156 311.578125 L 330.410156 298.703125 C 333.015625 299.203125 335.699219 299.484375 338.445312 299.484375 C 354.082031 299.484375 367.703125 290.992188 375.066406 278.386719 L 375.066406 235.585938 C 367.703125 222.980469 354.082031 214.488281 338.445312 214.488281 C 335.699219 214.488281 333.015625 214.769531 330.410156 215.269531 L 330.410156 188.523438 C 333.015625 189.023438 335.699219 189.308594 338.445312 189.308594 Z M 338.445312 189.308594 " fill-opacity="1" fill-rule="nonzero"/></g><path fill="#e9eaeb" d="M 308.261719 74.867188 L 120.046875 74.867188 C 112.628906 74.867188 106.621094 80.886719 106.621094 88.3125 L 106.621094 327.140625 C 106.621094 334.566406 112.628906 340.585938 120.046875 340.585938 L 287.292969 340.585938 L 321.6875 306.132812 L 321.6875 88.3125 C 321.6875 80.886719 315.679688 74.867188 308.261719 74.867188 Z M 308.261719 74.867188 " fill-opacity="1" fill-rule="nonzero"/><path fill="#f8f8f8" d="M 321.664062 87.960938 L 125.078125 87.960938 C 122.257812 87.960938 119.988281 90.230469 119.988281 93.054688 L 119.988281 340.226562 C 119.988281 340.34375 119.988281 340.460938 120.019531 340.578125 C 112.605469 340.546875 106.617188 334.550781 106.617188 327.125 L 106.617188 88.3125 C 106.617188 80.886719 112.632812 74.859375 120.046875 74.859375 L 308.261719 74.859375 C 315.554688 74.859375 321.488281 80.683594 321.664062 87.960938 Z M 321.664062 87.960938 " fill-opacity="1" fill-rule="nonzero"/><path fill="#7184af" d="M 106.621094 146.476562 L 106.621094 261.527344 C 154.632812 228.703125 145.261719 176.320312 145.261719 176.320312 C 125.757812 168.882812 116.082031 156.101562 106.621094 146.476562 Z M 106.621094 146.476562 " fill-opacity="1" fill-rule="nonzero"/><path fill="#7184af" d="M 287.292969 340.585938 L 287.292969 306.132812 L 321.6875 306.132812 Z M 287.292969 340.585938 " fill-opacity="1" fill-rule="nonzero"/><path fill="#7184af" d="M 106.621094 88.3125 C 106.621094 80.886719 112.628906 74.867188 120.046875 74.867188 L 284.8125 74.867188 L 284.8125 53.863281 C 284.8125 46.4375 278.800781 40.417969 271.386719 40.417969 L 83.171875 40.417969 C 75.757812 40.417969 69.746094 46.4375 69.746094 53.863281 L 69.746094 292.6875 C 69.746094 300.113281 75.757812 306.136719 83.171875 306.136719 L 106.621094 306.136719 Z M 106.621094 88.3125 " fill-opacity="1" fill-rule="nonzero"/><path fill="#3f4d81" d="M 69.742188 136.144531 L 69.742188 269.449219 C 73.382812 271.253906 77.222656 272.984375 81.371094 274.574219 C 91.191406 270.808594 99.523438 266.378906 106.621094 261.527344 L 106.621094 146.476562 C 99.464844 139.199219 92.4375 133.722656 81.371094 133.722656 C 76.933594 133.722656 73.152344 134.617188 69.742188 136.144531 Z M 69.742188 136.144531 " fill-opacity="1" fill-rule="nonzero"/><path fill="#61e1ff" d="M 133.632812 164.675781 C 99.382812 151.613281 95.449219 122.074219 69.742188 122.074219 C 44.039062 122.074219 40.105469 151.609375 5.855469 164.675781 C 5.855469 164.675781 -6.519531 233.699219 69.746094 262.925781 C 146.007812 233.699219 133.632812 164.675781 133.632812 164.675781 Z M 133.632812 164.675781 " fill-opacity="1" fill-rule="nonzero"/><path fill="#f8f8f8" d="M 69.753906 122.085938 C 78.039062 122.085938 84.085938 125.171875 89.582031 129.773438 C 86.878906 128.902344 83.910156 128.40625 80.601562 128.40625 C 54.902344 128.40625 50.945312 157.929688 16.699219 171.003906 C 16.699219 171.003906 7.136719 224.40625 56.703125 257.132812 C -5.050781 225.480469 5.855469 164.683594 5.855469 164.683594 C 40.101562 151.613281 44.054688 122.085938 69.753906 122.085938 Z M 69.753906 122.085938 " fill-opacity="1" fill-rule="nonzero"/><path fill="#f8f8f8" d="M 133.800781 165.878906 C 131.824219 164.773438 129.992188 163.582031 128.246094 162.355469 C 129.960938 163.203125 131.734375 163.957031 133.625 164.683594 C 133.625 164.683594 133.714844 165.09375 133.800781 165.878906 Z M 133.800781 165.878906 " fill-opacity="1" fill-rule="nonzero"/><path fill="#e9eaeb" d="M 62.757812 189.207031 L 62.757812 195.1875 L 69.746094 208.453125 L 76.734375 195.1875 L 76.734375 189.207031 C 74.601562 190.183594 72.242188 190.738281 69.746094 190.738281 C 67.25 190.738281 64.890625 190.183594 62.757812 189.207031 Z M 62.757812 189.207031 " fill-opacity="1" fill-rule="nonzero"/><path fill="#ffa85a" d="M 99.261719 217.394531 C 99.261719 204.460938 83.710938 198.636719 83.710938 198.636719 L 76.730469 195.183594 L 69.746094 208.453125 L 69.75 208.453125 L 69.746094 208.457031 L 69.742188 208.453125 L 69.746094 208.453125 L 62.757812 195.1875 L 55.777344 198.640625 C 55.777344 198.640625 40.226562 204.464844 40.226562 217.398438 C 40.226562 219.730469 40.0625 222.429688 39.914062 225.289062 L 99.570312 225.289062 C 99.425781 222.425781 99.261719 219.726562 99.261719 217.394531 Z M 99.261719 217.394531 " fill-opacity="1" fill-rule="nonzero"/><path fill="#3f4d80" d="M 57.742188 162.746094 C 57.742188 159.5625 60.316406 156.984375 63.492188 156.984375 L 75.992188 156.984375 C 79.171875 156.984375 81.746094 159.5625 81.746094 162.746094 C 81.746094 171.953125 87.324219 165.808594 87.324219 165.808594 L 87.324219 157.421875 C 87.324219 144.347656 80.238281 147.910156 80.238281 147.910156 C 80.238281 147.910156 78.800781 144.347656 74.277344 144.347656 L 65.210938 144.347656 C 58.007812 144.347656 52.164062 150.203125 52.164062 157.417969 L 52.164062 165.808594 C 52.164062 165.808594 57.742188 171.953125 57.742188 162.746094 Z M 57.742188 162.746094 " fill-opacity="1" fill-rule="nonzero"/><path fill="#f8f8f8" d="M 87.867188 165.761719 C 87.679688 165.761719 87.503906 165.78125 87.324219 165.804688 C 87.324219 165.804688 81.746094 171.949219 81.746094 162.742188 C 81.746094 159.558594 79.171875 156.980469 75.992188 156.980469 L 63.492188 156.980469 C 60.316406 156.980469 57.742188 159.558594 57.742188 162.742188 C 57.742188 171.949219 52.164062 165.804688 52.164062 165.804688 C 51.988281 165.777344 51.808594 165.761719 51.621094 165.761719 C 51.621094 165.761719 48.335938 165.761719 48.335938 169.070312 L 48.335938 172.394531 C 48.335938 175.105469 49.808594 177.5625 53.246094 178.085938 C 53.316406 178.097656 53.378906 178.101562 53.445312 178.105469 C 55.332031 185.367188 61.902344 190.734375 69.742188 190.734375 C 77.582031 190.734375 84.15625 185.367188 86.039062 178.105469 C 86.109375 178.097656 86.164062 178.09375 86.238281 178.085938 C 89.679688 177.5625 91.152344 175.105469 91.152344 172.394531 L 91.152344 169.070312 C 91.15625 165.761719 87.867188 165.761719 87.867188 165.761719 Z M 87.867188 165.761719 " fill-opacity="1" fill-rule="nonzero"/><path fill="#ffa85a" d="M 372.15625 248.253906 C 372.15625 249.644531 372.089844 251.03125 371.953125 252.417969 C 371.816406 253.804688 371.613281 255.179688 371.34375 256.542969 C 371.070312 257.910156 370.734375 259.257812 370.332031 260.589844 C 369.925781 261.921875 369.460938 263.230469 368.925781 264.515625 C 368.394531 265.800781 367.800781 267.058594 367.148438 268.285156 C 366.492188 269.515625 365.777344 270.707031 365.007812 271.863281 C 364.234375 273.019531 363.40625 274.136719 362.527344 275.214844 C 361.644531 276.289062 360.710938 277.320312 359.730469 278.304688 C 358.746094 279.289062 357.71875 280.222656 356.644531 281.105469 C 355.570312 281.988281 354.453125 282.816406 353.300781 283.589844 C 352.144531 284.363281 350.953125 285.078125 349.726562 285.734375 C 348.5 286.390625 347.246094 286.984375 345.960938 287.515625 C 344.679688 288.050781 343.371094 288.515625 342.042969 288.921875 C 340.710938 289.324219 339.367188 289.664062 338.003906 289.933594 C 336.640625 290.207031 335.265625 290.410156 333.882812 290.546875 C 332.5 290.683594 331.113281 290.75 329.722656 290.75 C 328.335938 290.75 326.949219 290.683594 325.566406 290.546875 C 324.183594 290.410156 322.808594 290.207031 321.445312 289.933594 C 320.082031 289.664062 318.738281 289.324219 317.40625 288.921875 C 316.078125 288.515625 314.769531 288.050781 313.484375 287.515625 C 312.203125 286.984375 310.945312 286.390625 309.722656 285.734375 C 308.496094 285.078125 307.304688 284.363281 306.148438 283.589844 C 304.992188 282.816406 303.878906 281.988281 302.804688 281.105469 C 301.730469 280.222656 300.703125 279.289062 299.71875 278.304688 C 298.738281 277.320312 297.804688 276.289062 296.921875 275.214844 C 296.042969 274.136719 295.214844 273.019531 294.441406 271.863281 C 293.671875 270.707031 292.957031 269.515625 292.300781 268.285156 C 291.644531 267.058594 291.054688 265.800781 290.519531 264.515625 C 289.988281 263.230469 289.523438 261.921875 289.117188 260.589844 C 288.714844 259.257812 288.378906 257.910156 288.105469 256.542969 C 287.835938 255.179688 287.632812 253.804688 287.496094 252.417969 C 287.359375 251.03125 287.292969 249.644531 287.292969 248.253906 C 287.292969 246.859375 287.359375 245.472656 287.496094 244.085938 C 287.632812 242.703125 287.835938 241.328125 288.105469 239.960938 C 288.378906 238.597656 288.714844 237.246094 289.117188 235.914062 C 289.523438 234.582031 289.988281 233.273438 290.519531 231.988281 C 291.054688 230.703125 291.644531 229.445312 292.300781 228.21875 C 292.957031 226.992188 293.671875 225.796875 294.441406 224.640625 C 295.214844 223.484375 296.042969 222.367188 296.921875 221.292969 C 297.804688 220.214844 298.738281 219.183594 299.71875 218.199219 C 300.703125 217.21875 301.730469 216.285156 302.804688 215.398438 C 303.878906 214.515625 304.992188 213.6875 306.148438 212.914062 C 307.304688 212.140625 308.496094 211.429688 309.722656 210.773438 C 310.945312 210.117188 312.203125 209.519531 313.484375 208.988281 C 314.769531 208.457031 316.078125 207.988281 317.40625 207.582031 C 318.738281 207.179688 320.082031 206.839844 321.445312 206.570312 C 322.808594 206.296875 324.183594 206.09375 325.566406 205.957031 C 326.949219 205.820312 328.335938 205.753906 329.722656 205.753906 C 331.113281 205.753906 332.5 205.820312 333.882812 205.957031 C 335.265625 206.09375 336.640625 206.296875 338.003906 206.570312 C 339.367188 206.839844 340.710938 207.179688 342.042969 207.582031 C 343.371094 207.988281 344.679688 208.457031 345.960938 208.988281 C 347.246094 209.519531 348.5 210.117188 349.726562 210.773438 C 350.953125 211.425781 352.144531 212.140625 353.300781 212.914062 C 354.453125 213.6875 355.570312 214.515625 356.644531 215.398438 C 357.71875 216.28125 358.746094 217.21875 359.730469 218.199219 C 360.710938 219.183594 361.644531 220.214844 362.527344 221.292969 C 363.40625 222.367188 364.234375 223.484375 365.007812 224.640625 C 365.777344 225.796875 366.492188 226.992188 367.148438 228.21875 C 367.800781 229.445312 368.394531 230.703125 368.925781 231.988281 C 369.460938 233.273438 369.925781 234.582031 370.332031 235.914062 C 370.734375 237.246094 371.070312 238.597656 371.34375 239.960938 C 371.613281 241.328125 371.816406 242.703125 371.953125 244.085938 C 372.089844 245.472656 372.15625 246.859375 372.15625 248.253906 Z M 372.15625 248.253906 " fill-opacity="1" fill-rule="nonzero"/><path fill="#f8f8f8" d="M 329.722656 232.675781 C 313.082031 232.675781 299.589844 248.253906 299.589844 248.253906 C 299.589844 248.253906 313.082031 263.828125 329.722656 263.828125 C 346.367188 263.828125 359.859375 248.253906 359.859375 248.253906 C 359.859375 248.253906 346.367188 232.675781 329.722656 232.675781 Z M 329.722656 232.675781 " fill-opacity="1" fill-rule="nonzero"/><path fill="#61e1ff" d="M 345.097656 248.109375 C 345.097656 249.128906 344.996094 250.140625 344.796875 251.140625 C 344.597656 252.140625 344.304688 253.113281 343.914062 254.058594 C 343.523438 255 343.046875 255.894531 342.480469 256.746094 C 341.914062 257.59375 341.269531 258.378906 340.550781 259.097656 C 339.832031 259.820312 339.046875 260.464844 338.199219 261.03125 C 337.351562 261.597656 336.457031 262.078125 335.515625 262.46875 C 334.574219 262.859375 333.605469 263.152344 332.605469 263.351562 C 331.605469 263.550781 330.597656 263.652344 329.578125 263.652344 C 328.558594 263.652344 327.550781 263.550781 326.550781 263.351562 C 325.550781 263.152344 324.582031 262.859375 323.640625 262.46875 C 322.699219 262.078125 321.804688 261.597656 320.957031 261.03125 C 320.109375 260.464844 319.328125 259.820312 318.605469 259.097656 C 317.886719 258.378906 317.242188 257.59375 316.675781 256.746094 C 316.109375 255.894531 315.632812 255 315.242188 254.058594 C 314.851562 253.113281 314.558594 252.140625 314.359375 251.140625 C 314.160156 250.140625 314.0625 249.128906 314.0625 248.109375 C 314.0625 247.089844 314.160156 246.078125 314.359375 245.078125 C 314.558594 244.078125 314.851562 243.105469 315.242188 242.160156 C 315.632812 241.21875 316.109375 240.324219 316.675781 239.476562 C 317.242188 238.625 317.886719 237.839844 318.605469 237.121094 C 319.328125 236.398438 320.109375 235.753906 320.957031 235.1875 C 321.804688 234.621094 322.699219 234.140625 323.640625 233.75 C 324.582031 233.359375 325.550781 233.066406 326.550781 232.867188 C 327.550781 232.667969 328.558594 232.566406 329.578125 232.566406 C 330.597656 232.566406 331.605469 232.667969 332.605469 232.867188 C 333.605469 233.066406 334.574219 233.359375 335.515625 233.75 C 336.457031 234.140625 337.351562 234.621094 338.199219 235.1875 C 339.046875 235.753906 339.832031 236.398438 340.550781 237.121094 C 341.269531 237.839844 341.914062 238.625 342.480469 239.476562 C 343.046875 240.324219 343.523438 241.21875 343.914062 242.160156 C 344.304688 243.105469 344.597656 244.078125 344.796875 245.078125 C 344.996094 246.078125 345.097656 247.089844 345.097656 248.109375 Z M 345.097656 248.109375 " fill-opacity="1" fill-rule="nonzero"/><path fill="#ffa85a" d="M 372.15625 138.070312 C 372.15625 139.464844 372.089844 140.851562 371.953125 142.238281 C 371.816406 143.621094 371.613281 144.996094 371.34375 146.363281 C 371.070312 147.726562 370.734375 149.078125 370.332031 150.410156 C 369.925781 151.742188 369.460938 153.050781 368.925781 154.335938 C 368.394531 155.621094 367.800781 156.878906 367.148438 158.105469 C 366.492188 159.332031 365.777344 160.527344 365.007812 161.683594 C 364.234375 162.839844 363.40625 163.957031 362.527344 165.03125 C 361.644531 166.109375 360.710938 167.140625 359.730469 168.125 C 358.746094 169.109375 357.71875 170.042969 356.644531 170.925781 C 355.570312 171.808594 354.453125 172.636719 353.300781 173.410156 C 352.144531 174.183594 350.953125 174.898438 349.726562 175.554688 C 348.5 176.207031 347.246094 176.804688 345.960938 177.335938 C 344.679688 177.867188 343.371094 178.335938 342.042969 178.742188 C 340.710938 179.144531 339.367188 179.484375 338.003906 179.753906 C 336.640625 180.027344 335.265625 180.230469 333.882812 180.367188 C 332.5 180.503906 331.113281 180.570312 329.722656 180.570312 C 328.335938 180.570312 326.949219 180.503906 325.566406 180.367188 C 324.183594 180.230469 322.808594 180.027344 321.445312 179.753906 C 320.082031 179.484375 318.738281 179.144531 317.40625 178.742188 C 316.078125 178.335938 314.769531 177.867188 313.484375 177.335938 C 312.203125 176.804688 310.945312 176.207031 309.722656 175.554688 C 308.496094 174.898438 307.304688 174.183594 306.148438 173.410156 C 304.992188 172.636719 303.878906 171.808594 302.804688 170.925781 C 301.730469 170.042969 300.703125 169.109375 299.71875 168.125 C 298.738281 167.140625 297.804688 166.109375 296.921875 165.03125 C 296.042969 163.957031 295.214844 162.839844 294.441406 161.683594 C 293.671875 160.527344 292.957031 159.332031 292.300781 158.105469 C 291.644531 156.878906 291.054688 155.621094 290.519531 154.335938 C 289.988281 153.050781 289.523438 151.742188 289.117188 150.410156 C 288.714844 149.078125 288.378906 147.726562 288.105469 146.363281 C 287.835938 144.996094 287.632812 143.621094 287.496094 142.238281 C 287.359375 140.851562 287.292969 139.464844 287.292969 138.070312 C 287.292969 136.679688 287.359375 135.292969 287.496094 133.90625 C 287.632812 132.519531 287.835938 131.144531 288.105469 129.78125 C 288.378906 128.414062 288.714844 127.066406 289.117188 125.734375 C 289.523438 124.402344 289.988281 123.09375 290.519531 121.808594 C 291.054688 120.523438 291.644531 119.265625 292.300781 118.039062 C 292.957031 116.808594 293.671875 115.617188 294.441406 114.460938 C 295.214844 113.304688 296.042969 112.1875 296.921875 111.109375 C 297.804688 110.035156 298.738281 109.003906 299.71875 108.019531 C 300.703125 107.035156 301.730469 106.101562 302.804688 105.21875 C 303.878906 104.335938 304.992188 103.507812 306.148438 102.734375 C 307.304688 101.960938 308.496094 101.246094 309.722656 100.589844 C 310.945312 99.933594 312.203125 99.339844 313.484375 98.808594 C 314.769531 98.273438 316.078125 97.808594 317.40625 97.402344 C 318.738281 97 320.082031 96.660156 321.445312 96.390625 C 322.808594 96.117188 324.183594 95.914062 325.566406 95.777344 C 326.949219 95.640625 328.335938 95.574219 329.722656 95.574219 C 331.113281 95.574219 332.5 95.640625 333.882812 95.777344 C 335.265625 95.914062 336.640625 96.117188 338.003906 96.390625 C 339.367188 96.660156 340.710938 97 342.042969 97.402344 C 343.371094 97.808594 344.679688 98.273438 345.960938 98.808594 C 347.246094 99.339844 348.5 99.933594 349.726562 100.589844 C 350.953125 101.246094 352.144531 101.960938 353.300781 102.734375 C 354.453125 103.507812 355.570312 104.335938 356.644531 105.21875 C 357.71875 106.101562 358.746094 107.035156 359.730469 108.019531 C 360.710938 109.003906 361.644531 110.035156 362.527344 111.109375 C 363.40625 112.1875 364.234375 113.304688 365.007812 114.460938 C 365.777344 115.617188 366.492188 116.808594 367.148438 118.039062 C 367.800781 119.265625 368.394531 120.523438 368.925781 121.808594 C 369.460938 123.09375 369.925781 124.402344 370.332031 125.734375 C 370.734375 127.066406 371.070312 128.414062 371.34375 129.78125 C 371.613281 131.144531 371.816406 132.519531 371.953125 133.90625 C 372.089844 135.292969 372.15625 136.679688 372.15625 138.070312 Z M 372.15625 138.070312 " fill-opacity="1" fill-rule="nonzero"/><path fill="#61e1ff" d="M 317.546875 163.953125 L 341.902344 163.953125 C 346.113281 163.953125 349.535156 160.53125 349.535156 156.308594 L 349.535156 137.105469 C 349.535156 132.882812 346.117188 129.464844 341.902344 129.464844 L 317.546875 129.464844 C 313.332031 129.464844 309.914062 132.882812 309.914062 137.105469 L 309.914062 156.308594 C 309.917969 160.53125 313.332031 163.953125 317.546875 163.953125 Z M 317.546875 163.953125 " fill-opacity="1" fill-rule="nonzero"/><path fill="#3f4d80" d="M 335.066406 143.484375 C 335.066406 143.835938 335.03125 144.183594 334.964844 144.527344 C 334.894531 144.871094 334.792969 145.203125 334.660156 145.527344 C 334.523438 145.851562 334.359375 146.160156 334.164062 146.453125 C 333.96875 146.746094 333.75 147.015625 333.5 147.261719 C 333.253906 147.511719 332.984375 147.734375 332.691406 147.929688 C 332.398438 148.121094 332.09375 148.289062 331.769531 148.421875 C 331.445312 148.554688 331.109375 148.65625 330.765625 148.726562 C 330.421875 148.792969 330.074219 148.828125 329.722656 148.828125 C 329.375 148.828125 329.027344 148.792969 328.683594 148.726562 C 328.339844 148.65625 328.003906 148.554688 327.679688 148.421875 C 327.355469 148.289062 327.046875 148.121094 326.757812 147.929688 C 326.464844 147.734375 326.195312 147.511719 325.949219 147.261719 C 325.699219 147.015625 325.476562 146.746094 325.28125 146.453125 C 325.089844 146.160156 324.921875 145.851562 324.789062 145.527344 C 324.65625 145.203125 324.554688 144.871094 324.484375 144.527344 C 324.417969 144.183594 324.382812 143.835938 324.382812 143.484375 C 324.382812 143.132812 324.417969 142.785156 324.484375 142.441406 C 324.554688 142.097656 324.65625 141.761719 324.789062 141.4375 C 324.921875 141.113281 325.089844 140.804688 325.28125 140.515625 C 325.476562 140.222656 325.699219 139.953125 325.949219 139.703125 C 326.195312 139.457031 326.464844 139.234375 326.757812 139.039062 C 327.046875 138.84375 327.355469 138.679688 327.679688 138.546875 C 328.003906 138.410156 328.339844 138.308594 328.683594 138.242188 C 329.027344 138.171875 329.375 138.140625 329.722656 138.140625 C 330.074219 138.140625 330.421875 138.171875 330.765625 138.242188 C 331.109375 138.308594 331.445312 138.410156 331.769531 138.546875 C 332.09375 138.679688 332.398438 138.84375 332.691406 139.039062 C 332.984375 139.234375 333.253906 139.457031 333.5 139.703125 C 333.75 139.953125 333.96875 140.222656 334.164062 140.515625 C 334.359375 140.804688 334.523438 141.113281 334.660156 141.4375 C 334.792969 141.761719 334.894531 142.097656 334.964844 142.441406 C 335.03125 142.785156 335.066406 143.132812 335.066406 143.484375 Z M 335.066406 143.484375 " fill-opacity="1" fill-rule="nonzero"/><path fill="#3f4d80" d="M 273.648438 267.167969 L 155.125 267.167969 C 153.519531 267.167969 152.21875 265.863281 152.21875 264.25 C 152.21875 262.640625 153.519531 261.335938 155.125 261.335938 L 273.648438 261.335938 C 275.253906 261.335938 276.554688 262.640625 276.554688 264.25 C 276.554688 265.863281 275.253906 267.167969 273.648438 267.167969 Z M 273.648438 267.167969 " fill-opacity="1" fill-rule="nonzero"/><path fill="#3f4d80" d="M 256.210938 303.222656 L 155.121094 303.222656 C 153.515625 303.222656 152.214844 301.921875 152.214844 300.308594 C 152.214844 298.699219 153.515625 297.394531 155.121094 297.394531 L 256.210938 297.394531 C 257.816406 297.394531 259.117188 298.699219 259.117188 300.308594 C 259.117188 301.921875 257.816406 303.222656 256.210938 303.222656 Z M 256.210938 303.222656 " fill-opacity="1" fill-rule="nonzero"/><path fill="#3f4d80" d="M 273.648438 119.164062 L 155.125 119.164062 C 153.519531 119.164062 152.21875 117.863281 152.21875 116.25 C 152.21875 114.636719 153.519531 113.335938 155.125 113.335938 L 273.648438 113.335938 C 275.253906 113.335938 276.554688 114.636719 276.554688 116.25 C 276.554688 117.863281 275.253906 119.164062 273.648438 119.164062 Z M 273.648438 119.164062 " fill-opacity="1" fill-rule="nonzero"/><path fill="#3f4d80" d="M 256.210938 155.226562 L 155.121094 155.226562 C 153.515625 155.226562 152.214844 153.921875 152.214844 152.3125 C 152.214844 150.699219 153.515625 149.398438 155.121094 149.398438 L 256.210938 149.398438 C 257.816406 149.398438 259.117188 150.699219 259.117188 152.3125 C 259.117188 153.921875 257.816406 155.226562 256.210938 155.226562 Z M 256.210938 155.226562 " fill-opacity="1" fill-rule="nonzero"/><path fill="#3f4d80" d="M 273.648438 192.609375 L 155.125 192.609375 C 153.519531 192.609375 152.21875 191.308594 152.21875 189.695312 C 152.21875 188.085938 153.519531 186.78125 155.125 186.78125 L 273.648438 186.78125 C 275.253906 186.78125 276.554688 188.085938 276.554688 189.695312 C 276.554688 191.308594 275.253906 192.609375 273.648438 192.609375 Z M 273.648438 192.609375 " fill-opacity="1" fill-rule="nonzero"/><path fill="#3f4d80" d="M 256.210938 228.671875 L 155.121094 228.671875 C 153.515625 228.671875 152.214844 227.367188 152.214844 225.757812 C 152.214844 224.144531 153.515625 222.84375 155.121094 222.84375 L 256.210938 222.84375 C 257.816406 222.84375 259.117188 224.144531 259.117188 225.757812 C 259.117188 227.367188 257.816406 228.671875 256.210938 228.671875 Z M 256.210938 228.671875 " fill-opacity="1" fill-rule="nonzero"/><g clip-path="url(#e0da0ba835)"><path fill="#3f4d80" d="M 287.292969 343.5 C 286.914062 343.5 286.535156 343.429688 286.179688 343.277344 C 285.09375 342.828125 284.382812 341.761719 284.382812 340.585938 L 284.382812 306.136719 C 284.382812 304.523438 285.6875 303.222656 287.292969 303.222656 L 321.6875 303.222656 C 322.867188 303.222656 323.925781 303.933594 324.375 305.019531 C 324.824219 306.109375 324.574219 307.367188 323.742188 308.195312 L 289.34375 342.644531 C 288.789062 343.203125 288.046875 343.5 287.292969 343.5 Z M 290.199219 309.050781 L 290.199219 333.554688 L 314.667969 309.050781 Z M 290.199219 309.050781 " fill-opacity="1" fill-rule="nonzero"/></g><g clip-path="url(#593e952931)"><path fill="#3f4d80" d="M 287.292969 343.5 L 120.046875 343.5 C 111.039062 343.5 103.710938 336.160156 103.710938 327.140625 L 103.710938 240.558594 C 103.710938 239.75 104.046875 238.980469 104.636719 238.429688 C 134.175781 210.761719 131.898438 174.679688 130.984375 166.761719 C 118.570312 161.710938 110.386719 154.65625 104.59375 149 C 104.03125 148.453125 103.710938 147.699219 103.710938 146.910156 L 103.710938 88.3125 C 103.710938 79.289062 111.039062 71.953125 120.046875 71.953125 L 308.261719 71.953125 C 317.269531 71.953125 324.597656 79.292969 324.597656 88.3125 L 324.597656 96.359375 C 324.597656 97.753906 323.609375 98.960938 322.238281 99.222656 C 303.671875 102.789062 290.199219 119.128906 290.199219 138.070312 C 290.199219 157.019531 303.675781 173.359375 322.238281 176.925781 C 323.609375 177.191406 324.597656 178.390625 324.597656 179.785156 L 324.597656 206.539062 C 324.597656 207.933594 323.609375 209.136719 322.238281 209.398438 C 303.671875 212.964844 290.199219 229.304688 290.199219 248.25 C 290.199219 267.195312 303.671875 283.535156 322.238281 287.101562 C 323.605469 287.367188 324.59375 288.570312 324.59375 289.964844 L 324.59375 306.132812 C 324.59375 306.910156 324.289062 307.648438 323.742188 308.195312 L 289.34375 342.644531 C 288.800781 343.195312 288.058594 343.5 287.292969 343.5 Z M 109.527344 241.8125 L 109.527344 327.136719 C 109.527344 332.945312 114.246094 337.667969 120.046875 337.667969 L 286.089844 337.667969 L 318.785156 304.925781 L 318.785156 292.308594 C 298.710938 287.328125 284.386719 269.175781 284.386719 248.25 C 284.386719 227.324219 298.714844 209.167969 318.785156 204.195312 L 318.785156 182.128906 C 298.710938 177.152344 284.386719 158.996094 284.386719 138.070312 C 284.386719 117.148438 298.714844 98.996094 318.785156 94.015625 L 318.785156 88.3125 C 318.785156 82.503906 314.066406 77.78125 308.265625 77.78125 L 120.046875 77.78125 C 114.242188 77.78125 109.527344 82.503906 109.527344 88.3125 L 109.527344 145.675781 C 115.113281 151.027344 122.964844 157.492188 134.664062 161.953125 C 135.621094 162.320312 136.3125 163.15625 136.496094 164.167969 C 136.820312 165.980469 143.96875 208.691406 109.527344 241.8125 Z M 109.527344 241.8125 " fill-opacity="1" fill-rule="nonzero"/></g><g clip-path="url(#0486398d5f)"><path fill="#3f4d80" d="M 106.621094 149.824219 C 105.875 149.824219 105.144531 149.539062 104.589844 149 C 101.996094 146.472656 99.644531 143.960938 97.371094 141.535156 C 88.691406 132.289062 81.839844 124.988281 69.738281 124.988281 C 68.136719 124.988281 66.832031 123.683594 66.832031 122.074219 L 66.832031 53.859375 C 66.832031 44.839844 74.160156 37.5 83.167969 37.5 L 271.386719 37.5 C 280.394531 37.5 287.722656 44.839844 287.722656 53.859375 L 287.722656 74.863281 C 287.722656 76.476562 286.421875 77.777344 284.816406 77.777344 L 120.046875 77.777344 C 114.242188 77.777344 109.527344 82.503906 109.527344 88.3125 L 109.527344 146.90625 C 109.527344 148.078125 108.828125 149.136719 107.75 149.59375 C 107.386719 149.753906 107 149.824219 106.621094 149.824219 Z M 72.652344 119.277344 C 85.457031 120.328125 92.984375 128.351562 101.605469 137.546875 C 102.300781 138.285156 103.003906 139.035156 103.710938 139.785156 L 103.710938 88.3125 C 103.710938 79.289062 111.039062 71.953125 120.046875 71.953125 L 281.90625 71.953125 L 281.90625 53.863281 C 281.90625 48.054688 277.183594 43.332031 271.386719 43.332031 L 83.171875 43.332031 C 77.371094 43.332031 72.652344 48.054688 72.652344 53.863281 Z M 72.652344 119.277344 " fill-opacity="1" fill-rule="nonzero"/></g><path fill="#3f4d80" d="M 106.621094 309.050781 L 83.171875 309.050781 C 74.164062 309.050781 66.835938 301.710938 66.835938 292.6875 L 66.835938 262.925781 C 66.835938 261.71875 67.578125 260.636719 68.707031 260.199219 C 82.941406 254.75 95.03125 247.421875 104.636719 238.429688 C 105.480469 237.636719 106.71875 237.421875 107.777344 237.882812 C 108.839844 238.34375 109.527344 239.394531 109.527344 240.554688 L 109.527344 306.132812 C 109.527344 307.746094 108.226562 309.050781 106.621094 309.050781 Z M 72.652344 264.917969 L 72.652344 292.683594 C 72.652344 298.492188 77.375 303.21875 83.171875 303.21875 L 103.710938 303.21875 L 103.710938 246.96875 C 94.921875 254.164062 84.503906 260.179688 72.652344 264.917969 Z M 72.652344 264.917969 " fill-opacity="1" fill-rule="nonzero"/><path fill="#3f4d80" d="M 69.742188 265.839844 C 69.390625 265.839844 69.039062 265.777344 68.707031 265.648438 C -8.910156 235.90625 2.863281 164.875 2.992188 164.160156 C 3.171875 163.152344 3.863281 162.316406 4.820312 161.953125 C 20.65625 155.914062 29.8125 146.152344 37.890625 137.539062 C 47.144531 127.675781 55.132812 119.160156 69.742188 119.160156 C 84.351562 119.160156 92.34375 127.675781 101.59375 137.539062 C 109.675781 146.152344 118.832031 155.914062 134.664062 161.953125 C 135.621094 162.316406 136.3125 163.152344 136.496094 164.160156 C 136.621094 164.875 148.394531 235.90625 70.78125 265.644531 C 70.449219 265.773438 70.09375 265.839844 69.742188 265.839844 Z M 8.480469 166.773438 C 7.144531 177.203125 3.214844 233.707031 69.742188 259.796875 C 99.902344 247.972656 119.335938 228.527344 127.507812 201.980469 C 132.574219 185.535156 131.535156 171.371094 130.988281 166.761719 C 114.90625 160.230469 105.601562 150.3125 97.359375 141.53125 C 88.6875 132.289062 81.839844 124.988281 69.742188 124.988281 C 57.648438 124.988281 50.796875 132.289062 42.125 141.53125 C 33.886719 150.316406 24.582031 160.234375 8.480469 166.773438 Z M 8.480469 166.773438 " fill-opacity="1" fill-rule="nonzero"/><path fill="#3f4d80" d="M 69.746094 211.363281 C 68.667969 211.363281 67.679688 210.765625 67.175781 209.808594 L 60.1875 196.542969 C 59.964844 196.125 59.847656 195.660156 59.847656 195.183594 L 59.847656 189.207031 C 59.847656 188.210938 60.351562 187.292969 61.1875 186.753906 C 62.019531 186.21875 63.066406 186.144531 63.964844 186.558594 C 67.632812 188.234375 71.847656 188.234375 75.519531 186.558594 C 76.421875 186.144531 77.472656 186.222656 78.300781 186.753906 C 79.132812 187.292969 79.636719 188.210938 79.636719 189.207031 L 79.636719 195.183594 C 79.636719 195.660156 79.523438 196.125 79.296875 196.542969 L 72.3125 209.808594 C 71.8125 210.765625 70.824219 211.363281 69.746094 211.363281 Z M 65.664062 194.460938 L 69.742188 202.207031 L 73.820312 194.460938 L 73.820312 193.226562 C 71.152344 193.792969 68.332031 193.792969 65.664062 193.226562 Z M 65.664062 194.460938 " fill-opacity="1" fill-rule="nonzero"/><path fill="#3f4d80" d="M 99.570312 228.203125 L 39.914062 228.203125 C 39.121094 228.203125 38.355469 227.878906 37.804688 227.296875 C 37.257812 226.71875 36.96875 225.9375 37.011719 225.140625 L 37.082031 223.796875 C 37.199219 221.492188 37.316406 219.316406 37.316406 217.398438 C 37.316406 203.179688 52.789062 196.683594 54.605469 195.96875 L 61.472656 192.570312 C 62.882812 191.871094 64.59375 192.425781 65.328125 193.824219 L 69.742188 202.210938 L 74.15625 193.824219 C 74.890625 192.429688 76.605469 191.871094 78.015625 192.570312 L 84.875 195.96875 C 86.695312 196.679688 102.167969 203.179688 102.167969 217.398438 C 102.167969 219.316406 102.28125 221.492188 102.402344 223.796875 L 102.472656 225.140625 C 102.511719 225.9375 102.222656 226.71875 101.675781 227.296875 C 101.128906 227.875 100.371094 228.203125 99.570312 228.203125 Z M 42.976562 222.375 L 96.511719 222.375 C 96.421875 220.601562 96.351562 218.921875 96.351562 217.398438 C 96.351562 206.613281 82.828125 201.421875 82.691406 201.371094 C 82.597656 201.335938 82.511719 201.296875 82.421875 201.253906 L 77.980469 199.054688 L 72.316406 209.8125 C 71.308594 211.722656 68.183594 211.726562 67.175781 209.8125 L 61.507812 199.054688 L 57.066406 201.253906 C 56.976562 201.296875 56.886719 201.335938 56.796875 201.371094 C 56.660156 201.421875 43.132812 206.671875 43.132812 217.398438 C 43.132812 218.921875 43.066406 220.597656 42.976562 222.375 Z M 42.976562 222.375 " fill-opacity="1" fill-rule="nonzero"/><path fill="#3f4d80" d="M 69.742188 193.648438 C 61.347656 193.648438 53.9375 188.335938 51.148438 180.53125 C 47.554688 179.292969 45.425781 176.269531 45.425781 172.394531 L 45.425781 169.070312 C 45.425781 166.101562 47.148438 164.136719 49.253906 163.304688 L 49.253906 157.417969 C 49.253906 148.605469 56.414062 141.433594 65.207031 141.433594 L 74.273438 141.433594 C 77.726562 141.433594 80.09375 142.972656 81.515625 144.589844 C 82.753906 144.453125 84.300781 144.609375 85.824219 145.550781 C 88.789062 147.386719 90.230469 151.269531 90.230469 157.417969 L 90.230469 163.308594 C 92.335938 164.136719 94.0625 166.105469 94.0625 169.074219 L 94.0625 172.394531 C 94.0625 176.34375 91.859375 179.40625 88.316406 180.578125 C 85.519531 188.359375 78.125 193.648438 69.742188 193.648438 Z M 51.253906 168.796875 C 51.261719 168.8125 51.242188 168.902344 51.242188 169.074219 L 51.242188 172.394531 C 51.242188 174.582031 52.636719 175.046875 53.683594 175.207031 C 54.835938 175.382812 55.964844 176.246094 56.257812 177.375 C 57.859375 183.527344 63.402344 187.824219 69.742188 187.824219 C 76.082031 187.824219 81.632812 183.527344 83.226562 177.375 C 83.527344 176.21875 84.492188 175.367188 85.671875 175.21875 C 86.851562 175.046875 88.246094 174.582031 88.246094 172.394531 L 88.246094 169.074219 C 88.246094 168.847656 88.207031 168.757812 88.207031 168.757812 C 88.15625 168.742188 87.867188 168.683594 87.863281 168.683594 L 87.742188 168.695312 C 86.90625 168.808594 86.058594 168.566406 85.421875 168.015625 C 84.785156 167.464844 84.417969 166.660156 84.417969 165.8125 L 84.417969 157.421875 C 84.417969 151.867188 83.0625 150.703125 82.789062 150.523438 C 82.289062 150.210938 81.496094 150.546875 81.484375 150.546875 C 80.765625 150.867188 79.914062 150.894531 79.183594 150.601562 C 78.449219 150.304688 77.835938 149.742188 77.542969 149.007812 C 77.429688 148.769531 76.617188 147.269531 74.273438 147.269531 L 65.207031 147.269531 C 59.617188 147.269531 55.066406 151.824219 55.066406 157.421875 L 55.066406 165.8125 C 55.066406 166.660156 54.699219 167.460938 54.0625 168.015625 C 53.425781 168.566406 52.574219 168.8125 51.746094 168.695312 C 51.550781 168.6875 51.339844 168.746094 51.253906 168.796875 Z M 51.253906 168.796875 " fill-opacity="1" fill-rule="nonzero"/><path fill="#3f4d80" d="M 55.535156 170.738281 C 52.941406 170.738281 50.726562 168.550781 50.011719 167.769531 C 48.929688 166.578125 49.019531 164.734375 50.207031 163.652344 C 51.390625 162.566406 53.222656 162.65625 54.304688 163.835938 C 54.433594 163.980469 54.59375 164.128906 54.753906 164.269531 C 54.800781 163.882812 54.832031 163.382812 54.832031 162.746094 C 54.832031 157.960938 58.714844 154.066406 63.492188 154.066406 L 75.992188 154.066406 C 80.769531 154.066406 84.652344 157.960938 84.652344 162.746094 C 84.652344 163.386719 84.6875 163.886719 84.730469 164.269531 C 84.894531 164.125 85.054688 163.976562 85.183594 163.835938 C 86.273438 162.660156 88.109375 162.585938 89.289062 163.664062 C 90.46875 164.75 90.550781 166.578125 89.476562 167.765625 C 88.621094 168.707031 85.582031 171.695312 82.320312 170.425781 C 78.839844 169.078125 78.839844 164.308594 78.839844 162.742188 C 78.839844 161.171875 77.5625 159.890625 75.992188 159.890625 L 63.492188 159.890625 C 61.921875 159.890625 60.648438 161.167969 60.648438 162.742188 C 60.648438 164.308594 60.648438 169.078125 57.167969 170.429688 C 56.613281 170.648438 56.066406 170.738281 55.535156 170.738281 Z M 55.535156 170.738281 " fill-opacity="1" fill-rule="nonzero"/><g clip-path="url(#bc7ed4728e)"><path fill="#3f4d80" d="M 329.726562 293.664062 C 304.722656 293.664062 284.382812 273.292969 284.382812 248.25 C 284.382812 223.207031 304.722656 202.835938 329.726562 202.835938 C 354.726562 202.835938 375.066406 223.207031 375.066406 248.25 C 375.066406 273.292969 354.726562 293.664062 329.726562 293.664062 Z M 329.726562 208.664062 C 307.929688 208.664062 290.199219 226.425781 290.199219 248.25 C 290.199219 270.078125 307.929688 287.835938 329.726562 287.835938 C 351.523438 287.835938 369.253906 270.078125 369.253906 248.25 C 369.253906 226.425781 351.519531 208.664062 329.726562 208.664062 Z M 329.726562 208.664062 " fill-opacity="1" fill-rule="nonzero"/></g><path fill="#3f4d80" d="M 329.726562 266.742188 C 311.960938 266.742188 297.980469 250.835938 297.398438 250.160156 C 296.449219 249.066406 296.449219 247.4375 297.398438 246.339844 C 297.980469 245.664062 311.960938 229.761719 329.726562 229.761719 C 347.488281 229.761719 361.472656 245.664062 362.058594 246.339844 C 363.007812 247.4375 363.007812 249.066406 362.058594 250.160156 C 361.46875 250.835938 347.488281 266.742188 329.726562 266.742188 Z M 303.636719 248.246094 C 307.703125 252.199219 318.003906 260.914062 329.726562 260.914062 C 341.488281 260.914062 351.757812 252.210938 355.820312 248.253906 C 351.75 244.300781 341.449219 235.585938 329.726562 235.585938 C 317.964844 235.589844 307.691406 244.292969 303.636719 248.246094 Z M 303.636719 248.246094 " fill-opacity="1" fill-rule="nonzero"/><path fill="#3f4d80" d="M 329.726562 266.671875 C 319.570312 266.671875 311.300781 258.394531 311.300781 248.21875 C 311.300781 238.039062 319.566406 229.761719 329.726562 229.761719 C 339.886719 229.761719 348.152344 238.039062 348.152344 248.21875 C 348.152344 258.394531 339.886719 266.671875 329.726562 266.671875 Z M 329.726562 235.589844 C 322.773438 235.589844 317.117188 241.253906 317.117188 248.21875 C 317.117188 255.183594 322.773438 260.84375 329.726562 260.84375 C 336.679688 260.84375 342.335938 255.183594 342.335938 248.21875 C 342.335938 241.253906 336.679688 235.589844 329.726562 235.589844 Z M 329.726562 235.589844 " fill-opacity="1" fill-rule="nonzero"/><g clip-path="url(#645ab442c7)"><path fill="#3f4d80" d="M 329.726562 183.488281 C 304.722656 183.488281 284.382812 163.113281 284.382812 138.070312 C 284.382812 113.03125 304.722656 92.660156 329.726562 92.660156 C 354.726562 92.660156 375.066406 113.03125 375.066406 138.070312 C 375.066406 163.113281 354.726562 183.488281 329.726562 183.488281 Z M 329.726562 98.488281 C 307.929688 98.488281 290.199219 116.246094 290.199219 138.070312 C 290.199219 159.898438 307.929688 177.660156 329.726562 177.660156 C 351.523438 177.660156 369.253906 159.898438 369.253906 138.070312 C 369.253906 116.246094 351.519531 98.488281 329.726562 98.488281 Z M 329.726562 98.488281 " fill-opacity="1" fill-rule="nonzero"/></g><path fill="#3f4d80" d="M 341.902344 166.871094 L 317.546875 166.871094 C 311.738281 166.871094 307.007812 162.136719 307.007812 156.3125 L 307.007812 137.105469 C 307.007812 131.289062 311.734375 126.550781 317.546875 126.550781 L 341.902344 126.550781 C 347.714844 126.550781 352.445312 131.289062 352.445312 137.105469 L 352.445312 156.3125 C 352.445312 162.136719 347.714844 166.871094 341.902344 166.871094 Z M 317.546875 132.378906 C 314.945312 132.378906 312.824219 134.503906 312.824219 137.105469 L 312.824219 156.3125 C 312.824219 158.921875 314.945312 161.042969 317.546875 161.042969 L 341.902344 161.042969 C 344.511719 161.042969 346.628906 158.917969 346.628906 156.3125 L 346.628906 137.105469 C 346.628906 134.5 344.511719 132.378906 341.902344 132.378906 Z M 317.546875 132.378906 " fill-opacity="1" fill-rule="nonzero"/><path fill="#3f4d80" d="M 339.488281 132.378906 C 337.882812 132.378906 336.578125 131.078125 336.578125 129.464844 L 336.578125 123 C 336.578125 118.644531 333.507812 115.105469 329.726562 115.105469 C 325.945312 115.105469 322.875 118.644531 322.875 123 L 322.875 129.464844 C 322.875 131.078125 321.574219 132.378906 319.96875 132.378906 C 318.363281 132.378906 317.0625 131.078125 317.0625 129.464844 L 317.0625 123 C 317.0625 115.429688 322.742188 109.277344 329.730469 109.277344 C 336.714844 109.277344 342.394531 115.429688 342.394531 123 L 342.394531 129.464844 C 342.394531 131.074219 341.089844 132.378906 339.488281 132.378906 Z M 339.488281 132.378906 " fill-opacity="1" fill-rule="nonzero"/><path fill="#3f4d80" d="M 329.726562 151.742188 C 325.179688 151.742188 321.480469 148.039062 321.480469 143.484375 C 321.480469 138.929688 325.179688 135.222656 329.726562 135.222656 C 334.273438 135.222656 337.972656 138.925781 337.972656 143.484375 C 337.96875 148.039062 334.273438 151.742188 329.726562 151.742188 Z M 329.726562 141.050781 C 328.386719 141.050781 327.296875 142.144531 327.296875 143.484375 C 327.296875 144.824219 328.386719 145.914062 329.726562 145.914062 C 331.066406 145.914062 332.15625 144.824219 332.15625 143.484375 C 332.15625 142.144531 331.066406 141.050781 329.726562 141.050781 Z M 329.726562 141.050781 " fill-opacity="1" fill-rule="nonzero"/><path fill="#3f4d80" d="M 329.726562 158.195312 C 328.121094 158.195312 326.820312 156.890625 326.820312 155.28125 L 326.820312 148.828125 C 326.820312 147.21875 328.121094 145.914062 329.726562 145.914062 C 331.332031 145.914062 332.632812 147.21875 332.632812 148.828125 L 332.632812 155.28125 C 332.632812 156.890625 331.332031 158.195312 329.726562 158.195312 Z M 329.726562 158.195312 " fill-opacity="1" fill-rule="nonzero"/><g clip-path="url(#b96d2c1172)"><path fill="#3f4d80" d="M 372.160156 330.128906 L 300.636719 330.128906 C 299.035156 330.128906 297.730469 328.828125 297.730469 327.214844 C 297.730469 325.601562 299.035156 324.300781 300.636719 324.300781 L 372.15625 324.300781 C 373.761719 324.300781 375.0625 325.601562 375.0625 327.214844 C 375.0625 328.828125 373.765625 330.128906 372.160156 330.128906 Z M 372.160156 330.128906 " fill-opacity="1" fill-rule="nonzero"/></g><path fill="#3f4d80" d="M 106.621094 330.128906 L 5.855469 330.128906 C 4.25 330.128906 2.949219 328.828125 2.949219 327.214844 C 2.949219 325.601562 4.25 324.300781 5.855469 324.300781 L 106.621094 324.300781 C 108.222656 324.300781 109.527344 325.601562 109.527344 327.214844 C 109.527344 328.828125 108.226562 330.128906 106.621094 330.128906 Z M 106.621094 330.128906 " fill-opacity="1" fill-rule="nonzero"/></svg>